<?xml version="1.0" encoding="utf-8"?>
<svg viewBox="446.081 171.662 156.676 156.676" xmlns="http://www.w3.org/2000/svg">
    <ellipse style="stroke: rgb(255, 255, 255);" cx="250" cy="250" rx="78.338" ry="78.338"
             transform="matrix(1, 0, 0, 1, 274.41861, -0.000004)"/>
    <rect x="218.928" y="228.539" width="62.675" height="41.844"
          style="stroke: rgb(255, 255, 255); fill: rgb(255, 255, 255);"
          transform="matrix(1, 0, 0, 1, 274.41861, -0.000004)"/>
    <g transform="matrix(1, 0, 0, 1, 293.76123, 22.264988)">
        <path style="fill: rgb(255, 255, 255); stroke: rgb(0, 0, 0);"
              d="M 199.092 206.071 C 186.605 218.106 195.36 234.704 199.325 249.461"/>
        <path style="fill: rgb(255, 255, 255); stroke: rgb(0, 0, 0);"
              d="M 268.452 249.399 C 255.965 237.364 264.72 220.766 268.685 206.009"
              transform="matrix(-1, 0, 0, -1, 530.674744, 455.408005)"/>
        <path style="fill: rgb(255, 255, 255); stroke: rgb(0, 0, 0);" d="M 199.303 249.023 L 262.154 249.023"/>
        <path style="fill: rgb(255, 255, 255); stroke: rgb(0, 0, 0);" d="M 198.749 206.246 L 262.43 206.246"/>
    </g>
    <g transform="matrix(0.806986, 0, 0, 0.89938, 338.281342, 43.172344)" style="">
        <path style="paint-order: stroke; stroke: rgb(0, 0, 0);"
              d="M 199.092 206.071 C 186.605 218.106 195.36 234.704 199.325 249.461"/>
        <path style="fill-rule: nonzero; paint-order: stroke; stroke: rgb(0, 0, 0);"
              d="M 268.452 249.399 C 255.965 237.364 264.72 220.766 268.685 206.009"
              transform="matrix(-1, 0, 0, -1, 530.674744, 455.408005)"/>
        <path style="paint-order: stroke; stroke: rgb(0, 0, 0);" d="M 199.303 249.023 L 262.154 249.023"/>
        <path style="paint-order: stroke; stroke: rgb(0, 0, 0);" d="M 198.749 206.246 L 262.43 206.246"/>
    </g>
    <rect x="224.9" y="249.479" width="50.199" height="16.751" style="stroke: rgb(0, 0, 0);"
          transform="matrix(1, 0, 0, 1, 274.41861, -0.000004)"/>
    <rect x="224.666" y="228.624" width="51.083" height="15.18" style="stroke: rgb(0, 0, 0);"
          transform="matrix(1, 0, 0, 1, 274.41861, -0.000004)"/>
    <rect x="215.045" y="244.151" width="69.91" height="4.379"
          style="fill: rgb(255, 255, 255); paint-order: stroke; stroke: rgb(255, 255, 255);"
          transform="matrix(1, 0, 0, 1, 274.41861, -0.000004)"/>
    <path d="M 249.216 245.104 Q 250 244.535 250.784 245.104 L 254.813 248.032 Q 255.597 248.601 255.298 249.523 L 253.758 254.26 Q 253.459 255.181 252.491 255.181 L 247.509 255.181 Q 246.541 255.181 246.242 254.26 L 244.702 249.523 Q 244.403 248.601 245.187 248.032 Z"
          style="fill: rgb(255, 255, 255); stroke: rgb(255, 255, 255);"
          transform="matrix(1, 0, 0, 1, 274.41861, -0.000004)"/>
    <g style="" transform="matrix(0.283786, 0, 0, 0.283786, 453.472107, 181.265915)">
        <ellipse style="stroke: rgb(0, 0, 0);" cx="250" cy="246.16" rx="3.409" ry="3.409"/>
        <path d="M 250.001 244.249 L 253.325 255.752 L 246.676 255.752 L 250.001 244.249 Z"
              style="stroke: rgb(0, 0, 0);"/>
    </g>
    <g transform="matrix(1, 0, 0, 1, 268.41861, -0.000004)">
        <path d="M 119.14 22.638 Q 119.14 10.671 132.959 22.638 L 132.959 22.638 Q 146.778 34.606 132.959 34.606 L 132.959 34.606 Q 119.14 34.606 119.14 22.638 Z"
              style="fill: rgb(255, 255, 255); stroke: rgb(255, 255, 255);"
              transform="matrix(0.936504, 0.350658, -0.350658, 0.936504, 127.706192, 128.585464)"/>
        <path style="fill: rgb(255, 255, 255); stroke: rgb(255, 255, 255);"
              d="M 229.253 184.16 C 235.714 180.994 243.092 193.755 247.186 197.202 C 247.279 197.017 237.632 195.842 237.042 192.673 C 236.473 189.214 233.46 185.211 229.253 184.16 Z"/>
    </g>
    <g transform="matrix(-1, 0, 0, 1, 779.658447, 0.08359)">
        <path d="M 119.14 22.638 Q 119.14 10.671 132.959 22.638 L 132.959 22.638 Q 146.778 34.606 132.959 34.606 L 132.959 34.606 Q 119.14 34.606 119.14 22.638 Z"
              style="stroke: rgb(255, 255, 255); fill: rgb(255, 255, 255);"
              transform="matrix(0.936504, 0.350658, -0.350658, 0.936504, 127.706192, 128.585464)"/>
        <path style="stroke: rgb(255, 255, 255); fill: rgb(255, 255, 255);"
              d="M 229.253 184.16 C 235.714 180.994 243.092 193.755 247.186 197.202 C 247.279 197.017 237.632 195.842 237.042 192.673 C 236.473 189.214 233.46 185.211 229.253 184.16 Z"/>
    </g>
    <path style="stroke: rgb(255, 255, 255); fill: rgb(255, 255, 255);"
          d="M 240.291 214.542 C 244.361 203.83 255.272 203.829 259.673 214.542 C 256.254 209.64 243.195 209.556 240.291 214.542 Z"
          transform="matrix(1, 0, 0, 1, 274.41861, -0.000004)"/>
    <path style="fill: rgb(255, 255, 255); stroke: rgb(255, 255, 255);"
          d="M 240.49 216.118 C 258.942 229.483 241.525 231.147 259.51 216.299 C 256.03 213.569 243.494 213.51 240.49 216.118 Z"
          transform="matrix(1, 0, 0, 1, 274.41861, -0.000004)"/>
    <path style="stroke: rgb(255, 255, 255);"
          d="M 323.447 276.301 C 320.489 288.437 211.259 262.171 210.051 250.578 C 195.862 258.85 175.756 283.666 182.337 289.161"
          transform="matrix(1, 0, 0, 1, 274.41861, -0.000004)"/>
</svg>